<?xml version="1.0" encoding="UTF-8" standalone="no"?>
<!-- Created with Inkscape (http://www.inkscape.org/) -->

<svg
   width="144.46809mm"
   height="144.35898mm"
   viewBox="0 0 144.46809 144.35898"
   version="1.1"
   id="svg5"
   xml:space="preserve"
   xmlns:inkscape="http://www.inkscape.org/namespaces/inkscape"
   xmlns:sodipodi="http://sodipodi.sourceforge.net/DTD/sodipodi-0.dtd"
   xmlns="http://www.w3.org/2000/svg"
   xmlns:svg="http://www.w3.org/2000/svg"><sodipodi:namedview
     id="namedview7"
     pagecolor="#505050"
     bordercolor="#ffffff"
     borderopacity="1"
     inkscape:showpageshadow="0"
     inkscape:pageopacity="0"
     inkscape:pagecheckerboard="1"
     inkscape:deskcolor="#505050"
     inkscape:document-units="mm"
     showgrid="false" /><defs
     id="defs2" /><g
     inkscape:label="Vrstva 1"
     inkscape:groupmode="layer"
     id="layer1"
     transform="translate(-32.765954,-76.320509)"><path
       style="fill:#000000;stroke-width:0.282222"
       d="m 48.7195,220.59163 c -8.495156,-1.15511 -15.66323,-9.04591 -15.775139,-17.36569 -0.02721,-2.0228 0.02664,-2.23475 0.752847,-2.96333 l 0.782151,-0.78472 10.149378,-0.14111 10.149377,-0.14111 -3.271954,-3.08358 C 40.898397,186.11505 34.664605,173.4443 33.069226,158.63735 c -0.440812,-4.09125 -0.385704,-30.36406 0.06558,-31.26723 0.193899,-0.38806 0.795277,-0.92986 1.336395,-1.204 0.899723,-0.45582 1.953457,-0.49202 12.322956,-0.42333 10.949393,0.0725 11.365866,0.0951 12.11776,0.65672 1.484231,1.10864 1.570662,2.96731 0.197176,4.24021 l -0.735352,0.68151 H 48.396067 38.41839 l 0.0023,12.34722 c 0.0013,6.79097 0.1328,13.49022 0.29228,14.88722 1.84744,16.183 10.402632,30.29913 23.742354,39.17508 l 2.413719,1.60603 h 27.171558 27.171549 l 2.41371,-1.60603 c 13.33973,-8.87595 21.89492,-22.99208 23.74236,-39.17508 0.15948,-1.397 0.29101,-8.09625 0.29228,-14.88722 l 0.002,-12.34722 H 116.0707 86.478581 l -0.73535,-0.68151 c -1.37361,-1.27301 -1.28705,-3.13177 0.19746,-4.24021 0.77413,-0.57802 0.97059,-0.58206 31.732209,-0.65375 29.03906,-0.0677 31.01409,-0.0415 31.9371,0.42333 1.45371,0.73209 1.68838,1.45597 1.6931,5.22269 l 0.004,3.31611 h 12.07276 c 13.18505,0 12.89344,-0.0353 13.58954,1.64524 0.2535,0.61199 0.31205,3.93835 0.22995,13.06401 -0.1266,14.07245 -0.21272,14.69851 -2.73232,19.86297 -3.61422,7.40816 -9.58252,12.34669 -17.65659,14.61011 -1.60117,0.44886 -3.17916,0.57991 -8.32663,0.69152 l -6.35107,0.13772 -1.26893,1.85343 c -2.17177,3.17214 -5.13328,6.575 -8.4611,9.72202 l -3.19974,3.02591 13.58585,0.0785 13.58584,0.0785 0.78233,0.78472 c 0.72643,0.72864 0.78024,0.94038 0.75303,2.96333 -0.10037,7.46224 -5.44115,14.20705 -13.37625,16.89273 -1.48748,0.50345 -3.50057,0.52667 -48.259999,0.55672 -25.689275,0.0172 -47.088774,-0.0204 -47.554441,-0.0838 z m 93.3311,-5.76497 c 4.33164,-0.91108 8.49553,-4.59279 9.69254,-8.57015 l 0.3838,-1.27529 H 95.427281 38.72761 l 0.383804,1.27529 c 1.159286,3.85201 5.134041,7.47551 9.314165,8.49105 1.955616,0.4751 91.383031,0.55066 93.625021,0.0791 z m 12.72874,-36.2651 c 6.66767,-1.49425 12.52668,-6.38655 15.11395,-12.62021 1.56078,-3.76048 1.73398,-5.37088 1.73398,-16.12267 v -9.74857 h -10.16 -10.16 v 2.96334 2.96333 h 6.42832 c 5.17936,0 6.54262,0.0801 7.01666,0.41209 1.16386,0.81521 1.29331,1.7287 1.16921,8.25085 -0.10909,5.73318 -0.16555,6.2814 -0.82614,8.02192 -1.02697,2.70584 -2.06138,4.33232 -3.91761,6.15996 -2.95446,2.90895 -6.97478,4.53074 -11.23145,4.53074 h -2.26732 l -0.58564,1.56526 c -0.32211,0.8609 -0.83923,2.06235 -1.14917,2.66987 -0.30994,0.60753 -0.56352,1.17316 -0.56352,1.25695 0,0.36915 7.47493,0.12827 9.39873,-0.30286 z m -0.27922,-11.7833 c 2.02788,-0.99215 3.78181,-2.80481 4.81578,-4.97704 0.83639,-1.75712 0.87761,-2.01585 0.97799,-6.13833 l 0.1048,-4.30389 h -4.54571 -4.54571 v 2.2689 c 0,2.59991 -0.41978,6.72614 -1.01815,10.00777 -0.22642,1.24178 -0.49073,2.68996 -0.58736,3.21818 l -0.17569,0.9604 1.75322,-0.15897 c 1.01957,-0.0925 2.36734,-0.45944 3.22083,-0.87702 z m -42.77452,26.0448 c -0.64835,-0.37763 -1.34055,-1.74082 -1.34055,-2.64003 0,-0.39332 0.36801,-1.12699 0.81779,-1.63039 0.67675,-0.75741 1.02243,-0.91526 2.00444,-0.91526 2.82063,0 3.84605,3.80802 1.37018,5.08834 -0.9027,0.4668 -2.14474,0.50919 -2.85186,0.0973 z m 9.52501,-7.0783 c -0.9282,-0.51044 -1.53928,-1.45214 -1.54595,-2.38236 -0.007,-0.95326 0.41911,-1.61892 2.9029,-4.5367 5.5783,-6.55299 8.7249,-14.4932 9.46808,-23.89201 0.2186,-2.76461 0.31323,-3.12901 0.98781,-3.80359 1.53223,-1.53223 4.1721,-0.64694 4.58172,1.5365 0.21298,1.13526 -0.31294,6.78983 -0.90209,9.69907 -1.51434,7.47791 -6.07669,16.30713 -11.11911,21.51812 -2.21901,2.29319 -2.99048,2.62147 -4.37336,1.86097 z M 71.474315,130.72968 c -0.953118,-0.88796 -1.236252,-1.86464 -0.865878,-2.98688 0.394005,-1.19385 1.349028,-1.84024 2.718907,-1.84024 0.824918,0 1.226693,0.19191 1.840907,0.87934 1.069264,1.19671 1.057529,2.4953 -0.03309,3.66281 -1.018491,1.0903 -2.659323,1.21803 -3.660842,0.28497 z m 2.927406,-10.67877 c -0.884606,-0.367 -1.562509,-1.27341 -1.729088,-2.3119 -0.118736,-0.74022 0.02142,-1.20356 0.629514,-2.08112 2.313818,-3.33912 2.690958,-3.99894 3.110405,-5.44179 0.910257,-3.13118 0.136623,-5.98654 -2.584834,-9.5402 -2.842666,-3.711929 -3.861819,-7.131039 -3.234385,-10.850899 0.388595,-2.30384 1.93476,-5.62332 3.015073,-6.47309 1.583676,-1.24572 4.119425,-0.38266 4.47708,1.5238 0.140719,0.7501 -0.02746,1.32859 -0.820959,2.82386 -1.957451,3.68861 -1.693133,5.90256 1.158356,9.7025 3.880367,5.171029 4.833858,9.715809 3.169137,15.105549 -0.59538,1.92762 -2.74638,5.42441 -4.133008,6.71886 -0.888162,0.82912 -2.195966,1.18178 -3.057291,0.82443 z m 31.295089,-0.01 c -0.8806,-0.36046 -1.80287,-1.66802 -1.80287,-2.55603 0,-0.4387 0.42976,-1.37565 0.98577,-2.14916 2.65746,-3.697 3.47622,-5.97813 3.11785,-8.68664 -0.26439,-1.99832 -0.99372,-3.50659 -2.95284,-6.10653 -2.02603,-2.688749 -2.74932,-4.239939 -3.17288,-6.804689 -0.57175,-3.46208 0.5969,-7.73141 2.73767,-10.00128 1.16137,-1.23141 2.86788,-1.35111 3.94245,-0.27653 1.21082,1.21082 1.20589,2.02071 -0.0263,4.32349 -0.99699,1.8632 -1.10294,2.26063 -1.09381,4.10303 0.0114,2.30428 0.20238,2.76041 2.39007,5.70889 2.81754,3.797379 3.79976,6.536019 3.76602,10.500449 -0.0333,3.90695 -1.57348,7.57503 -4.50111,10.71949 -1.15134,1.23661 -2.32573,1.66116 -3.39,1.22551 z m -16.500129,-7.04263 c -1.31723,-1.31722 -1.16282,-2.59008 0.587,-4.83914 1.79062,-2.30149 2.53915,-4.25106 2.53915,-6.61329 0,-2.568369 -0.61661,-4.100369 -2.9945,-7.439919 -2.44322,-3.43131 -3.21439,-5.50558 -3.21439,-8.64602 0,-2.61054 0.78541,-5.19944 2.18086,-7.188675 1.5435,-2.200269 3.20627,-2.54874 4.75789,-0.997122 0.96475,0.964748 0.879,2.222837 -0.30652,4.497297 -0.82182,1.57666 -0.98674,2.18798 -0.98158,3.63845 0.008,2.11779 0.55922,3.42758 2.52283,5.98951 2.65712,3.46675 3.67986,6.3076 3.67986,10.221549 0,3.79426 -1.64995,7.73711 -4.52994,10.82515 -1.09879,1.17817 -1.43838,1.37717 -2.35004,1.37717 -0.80154,0 -1.27013,-0.20446 -1.89062,-0.82496 z"
       id="path125" /></g></svg>
